# xmcd CD database file
# Copyright (C) 1993-1996 Ti Kan
#
# Track frame offsets:
#	150
#	9923
#	21913
#	34435
#	51780
#	70588
#	82800
#	106408
#	118658
#	137165
#	153568
#	163688
#	178668
#	193063
#	201670
#	220960
#	236345
#	250695
#	263185
#	277745
#	292850
#	305863
#
# Disc length: 4261 seconds
#
# Revision: 2
# Processed by: cddbd v1.4PL0 Copyright (c) Steve Scherf et al.
# Submitted via: Gronk 1.4
#
DISCID=3b10a316
DTITLE=John Hammond  - The Best Of John Hammond
DYEAR=1900
DGENRE=blues
TTITLE0=My Babe
TTITLE1=I Wish You Would
TTITLE2=Mik Cow Calf's Blues
TTITLE3=No Money Down
TTITLE4=They Call It Stormy Monday
TTITLE5=Big Boss Man
TTITLE6=See That My Grave Is Kept Clean
TTITLE7=So Many Roads, So Many Trains
TTITLE8=Lousie, Lousie Blues
TTITLE9=32-20 Blues
TTITLE10=Baby, Please Don't Go
TTITLE11=I'm A Man
TTITLE12=Stones In My Passway
TTITLE13=Get Right Church
TTITLE14=Back Door Man
TTITLE15=Stateborough Blues
TTITLE16=Traveling Riverside Blues
TTITLE17=Drop Down Mama
TTITLE18=Key To The Highway
TTITLE19=Barbecue Blues
TTITLE20=Going Back To Folrida
TTITLE21=Who Do You Love
EXTD=
EXTT0=
EXTT1=
EXTT2=
EXTT3=
EXTT4=
EXTT5=
EXTT6=
EXTT7=
EXTT8=
EXTT9=
EXTT10=
EXTT11=
EXTT12=
EXTT13=
EXTT14=
EXTT15=
EXTT16=
EXTT17=
EXTT18=
EXTT19=
EXTT20=
EXTT21=
PLAYORDER=
